<?xml version="1.0" encoding="UTF-8" standalone="no"?><!DOCTYPE svg PUBLIC "-//W3C//DTD SVG 1.1//EN" "http://www.w3.org/Graphics/SVG/1.1/DTD/svg11.dtd"><svg width="100%" height="100%" viewBox="0 0 350 120" version="1.1" xmlns="http://www.w3.org/2000/svg" xmlns:xlink="http://www.w3.org/1999/xlink" xml:space="preserve" xmlns:serif="http://www.serif.com/" style="fill-rule:evenodd;clip-rule:evenodd;stroke-linejoin:round;stroke-miterlimit:2;"><path d="M96.3,20c-5.7,0 -11,3.2 -12.9,8.4c-0.8,2 -1.1,4.1 -0.9,6.3l5.9,0c2.4,0 3.9,1.3 3.9,2.1c-6.2,2.4 -8.6,5.7 -8.3,8.3l5.5,39l19.3,-44.6c1.3,-3 1.6,-5.5 0.6,-9.2c-0.9,-3.4 -3,-6.8 -7.6,-9c-1.6,-0.7 -3.7,-1.2 -5.4,-1.2l-0.1,-0.1Z" style="fill:#6e55dc;fill-rule:nonzero;"/><path d="M63.7,20c-1.8,0 -3.8,0.4 -5.4,1.1c-4.6,2.2 -6.8,5.7 -7.7,9.2c-0.9,3.7 -0.3,6.8 0.7,9.3l19.3,44.5l6.9,-48.5c0.3,-2.4 0,-4.9 -0.8,-7.2c-2,-5.1 -7,-8.4 -13,-8.4Z" style="fill:#ef1541;fill-rule:nonzero;"/><path d="M29.9,41.7c-1.5,0.9 -3,2.4 -4,3.9c-2.6,4.2 -2.8,9 -1.8,12.1c1.1,3.3 3.1,5.6 5.8,7.4l39.1,26.3l-19,-43.5c-1,-2.2 -2.7,-4.2 -4.7,-5.7c-4.4,-3.1 -10.7,-3.4 -15.4,-0.6l0,0.1Z" style="fill:#ff7112;fill-rule:nonzero;"/><path d="M13.7,79.1c-0.8,1.6 -1.2,3.7 -1.2,5.4c0.1,5 1.8,8.4 5.2,11c2,1.6 5.7,3 8.8,3l45.5,0l-37.9,-25.5c-1.3,-0.9 -4.1,-2.4 -7.8,-2.4c-3.1,0 -5.9,1 -8.1,2.7c-2.9,2.2 -3.8,4.1 -4.7,5.8l0.2,0Z" style="fill:#fccc12;fill-rule:nonzero;"/><path d="M130.1,41.7c1.5,0.9 3,2.4 4,3.9c2.6,4.2 2.8,9 1.8,12.1c-1.1,3.3 -3.1,5.6 -5.8,7.4l-39.1,26.3l19,-43.5c1,-2.2 2.7,-4.2 4.7,-5.7c4.4,-3.1 10.7,-3.4 15.4,-0.6l0,0.1Z" style="fill:#069de0;fill-rule:nonzero;"/><path d="M146.4,79.1c0.8,1.6 1.2,3.7 1.2,5.4c-0.1,5 -1.8,8.4 -5.2,11c-2.1,1.6 -5.7,3 -8.8,3l-45.7,0l38,-25.5c1.3,-0.9 4.1,-2.4 8,-2.4c3.9,0 5.8,1 8,2.7c2.9,2.2 3.7,4.1 4.6,5.8l-0.1,0Z" style="fill:#05ac3f;fill-rule:nonzero;"/><path d="M311.8,41.4c-16.4,0 -30.3,13.1 -30.3,29.1c0,16 1.8,12.8 7.3,19.2c4.9,5.7 12.5,10.1 23,10.4c13.2,0 19.4,-5.3 25.7,-10.5l-8.4,-9.9c-2.3,1.9 -4.1,3.6 -6.5,5c-3,1.6 -5.7,2.4 -10.7,2.4c-10.6,0 -17.4,-8.3 -17.4,-16.6c0,-8.3 7.8,-16.1 17.4,-16.1c6.3,0 10.7,2.5 14.4,6.6l9.2,-9.1c-6.4,-7 -14.2,-10.4 -23.6,-10.4l-0.1,-0.1Zm-151.2,1.4l0,55.7l12.1,0l0,-36.2l26.8,36.2l12.9,0l0,-55.7l-12,0l0,36.2l-26.8,-36.2l-13,0Zm62.7,0l0,55.7l32.8,0c3.9,0 9.1,-1.1 12.4,-3.4c2,-1.4 3.6,-3 4.7,-5.6c1.3,-2.9 1.8,-5.9 1.8,-8.2c0,-5.6 -2.2,-9.5 -8.3,-12.8c1.4,-0.8 3,-1.9 4.2,-3.5c1.3,-1.7 2.1,-3.5 2.1,-6.4c0,-10.4 -8.8,-15.8 -17,-15.8l-32.8,0l0.1,0Zm11.7,10.5l18.4,0c5.7,0 7.2,2.4 7.2,5.4c0,3 -0.6,2.9 -1.8,3.9c-0.8,0.6 -2.5,1.3 -3.7,1.3l-20,0l0,-10.5l-0.1,-0.1Zm0,21l18.3,0c3,0 5.2,0.5 6.9,1.6c1.6,1.1 2.4,2.9 2.4,5.2c0,2.3 -0.8,3.7 -2.2,4.8c-1.7,1.3 -3.6,1.8 -6.8,1.8l-18.5,0l0,-13.4l-0.1,0Z" style="fill:#fff;fill-rule:nonzero;"/></svg>