<?xml version="1.0" encoding="UTF-8" standalone="no"?><!DOCTYPE svg PUBLIC "-//W3C//DTD SVG 1.1//EN" "http://www.w3.org/Graphics/SVG/1.1/DTD/svg11.dtd"><svg width="100%" height="100%" viewBox="0 0 162 40" version="1.1" xmlns="http://www.w3.org/2000/svg" xmlns:xlink="http://www.w3.org/1999/xlink" xml:space="preserve" xmlns:serif="http://www.serif.com/" style="fill-rule:evenodd;clip-rule:evenodd;stroke-linejoin:round;stroke-miterlimit:2;"><g><path d="M33.405,7.553c-2.716,-0.618 -5.228,1.408 -4.95,4.181l1.761,0c0,0 0.82,-0.009 1.061,0.52c0,0 -2.605,0.948 -2.396,2.481l1.622,11.289l5.678,-12.994c0.867,-1.974 -0.102,-4.883 -2.772,-5.477l-0.005,0Z" style="fill:#675ea9;"/><path d="M25.632,30.224l-11.064,-7.391c-2.818,-1.886 -5.599,0.037 -6.192,2.021c-0.871,2.927 1.08,5.366 4.139,5.366l13.112,0l0.005,0.005Z" style="fill:#fccd15;"/><path d="M27.087,11.915c0.408,-2.866 -2.155,-4.989 -4.932,-4.362c-2.67,0.599 -3.638,3.507 -2.772,5.477l5.678,12.994l2.025,-14.109Z" style="fill:#ed1943;"/><path d="M24.603,28.156l-5.446,-12.441c-1.275,-2.885 -4.653,-3.243 -6.517,-1.552c-1.312,1.194 -2.331,4.441 0.603,6.406l11.36,7.586Z" style="fill:#f37221;"/><path d="M29.924,30.224l11.064,-7.391c2.818,-1.886 5.599,0.037 6.192,2.021c0.871,2.927 -1.08,5.366 -4.139,5.366l-13.112,0l-0.005,0.005Z" style="fill:#0bac4b;"/><path d="M30.953,28.156l5.446,-12.441c1.275,-2.885 4.654,-3.243 6.517,-1.552c1.312,1.194 2.331,4.441 -0.602,6.406l-11.36,7.586Z" style="fill:#1c9cd8;"/><path d="M50.383,9.713l4.802,0l9.882,13.268l0,-13.268l4.501,0l0,20.51l-4.802,0l-9.882,-13.291l0,13.291l-4.501,0l0,-20.51Z" style="fill:#fff;fill-rule:nonzero;"/><path d="M85.84,23.771c0,-1.97 -1.636,-2.481 -3.231,-2.481l-6.943,0l0,4.896l7.11,0c1.298,0 3.064,-0.451 3.064,-2.42l0,0.005Zm-10.174,-10.206l0,3.879l7.017,0c1.159,0 2.429,-0.483 2.429,-1.928c0,-1.445 -0.992,-1.951 -2.596,-1.951l-6.85,0Zm14.795,10.206c0,5.579 -4.459,6.457 -7.244,6.457l-11.893,0l0,-20.51l11.884,0c3.643,0 6.554,2.077 6.554,5.96c0,3.884 -1.353,2.987 -2.378,3.507c1.692,0.85 3.078,2.104 3.078,4.585Z" style="fill:#fff;fill-rule:nonzero;"/><path d="M108.996,23.562l-0.116,-0.135l-0.153,-0.177c-2.021,1.728 -3.309,2.708 -6.229,2.708l-0.125,0c-4.014,0 -6.499,-3.122 -6.499,-6.016c0,-2.894 2.925,-6.016 6.522,-6.016c2.897,0.028 4.431,1.584 5.163,2.332l0.116,0.116l3.383,-3.391c-0.38,-0.381 -3.263,-3.828 -8.63,-3.828c-5.367,0 -11.309,4.706 -11.341,10.755c0,5.872 4.927,10.81 11.281,10.838c4.779,0 7.203,-1.956 9.446,-3.884l-2.827,-3.303l0.009,0Z" style="fill:#fff;fill-rule:nonzero;"/><path d="M148.472,9.713l0,13.263l-9.882,-13.263l-2.498,0c0.431,1.041 0.384,2.439 0.38,2.606c-0.13,0.985 -1.038,1.877 -2.684,2.699l0,5.524c0.566,0.223 0.885,0.557 1.071,0.855c0.357,0.557 0.38,1.278 0.06,1.914c-0.264,0.502 -0.565,0.818 -1.136,1.129l0,5.784l4.501,0l0,-13.296l9.882,13.296l4.801,0l0,-20.51l-4.5,0l0.005,0Z" style="fill:#fff;fill-rule:nonzero;"/><path d="M128.968,23.311c-1.02,1.775 -4.459,3.893 -5.608,4.548c-0.635,0.358 -2.1,1.217 -3.912,1.867c-2.003,0.72 -3.782,1.059 -3.949,0.567c-0.07,-0.204 -0.2,-0.293 0.449,-0.98c0.76,-0.799 3.078,-2.295 5.228,-3.41c2.207,-1.148 4.635,-2.179 6.939,-3.052c0.32,-0.111 0.63,-0.204 0.927,-0.293c0.088,0.2 0.097,0.441 -0.079,0.748l0.005,0.005Zm0.792,-16.111c-4.343,0.014 -10.855,1.259 -16.625,5.5c-2.962,2.174 -2.512,3.73 -2.512,3.73c0,0 -0.051,3.02 2.234,3.754c0.922,0.293 1.59,0.46 3.101,0.609c2.92,0.288 5.084,0.33 8.111,0.539c1.724,0.116 2.934,0.311 3.777,0.529c-0.426,0.163 -0.7,0.288 -0.728,0.302c-0.101,0.037 -0.199,0.084 -0.296,0.13l-0.283,0.111l0,0.009c-2.025,0.771 -4.046,1.617 -5.849,2.527c-1.942,0.971 -4.853,2.615 -5.891,3.921c-1.247,1.566 -0.088,2.801 -0.227,2.541c0.18,0.344 0.959,1.747 4.278,1.315c1.622,-0.204 3.518,-0.98 4.982,-1.775c2.1,-1.148 3.662,-2.471 4.594,-3.387c1.886,-1.812 2.414,-3.224 2.419,-4.455c0,-0.348 -0.056,-0.65 -0.13,-0.906c0.167,-0.023 0.325,-0.037 0.482,-0.046c1.094,-0.06 1.544,0.209 1.72,0.372c0.111,0.111 0.162,0.232 0.157,0.353c-0.009,0.279 -0.213,0.497 -0.38,0.674c-0.06,0.06 -0.116,0.112 -0.153,0.163c-0.078,0.107 -0.055,0.204 -0.037,0.246c0.056,0.13 0.227,0.163 0.274,0.172l0.041,0l0.033,-0.005c0.973,-0.418 1.224,-0.674 1.455,-1.119c0.209,-0.418 0.2,-0.878 -0.032,-1.236c-0.232,-0.372 -0.816,-0.818 -2.253,-0.794c-0.639,0.009 -1.284,0.098 -1.886,0.223l-0.056,-0.088c-0.13,-0.121 -0.264,-0.232 -0.44,-0.344c-2.535,-1.589 -10.109,-1.728 -13.015,-1.942c-3.143,-0.237 -3.847,-0.441 -3.968,-0.966c-0.152,-0.678 0.835,-1.635 2.262,-2.671c5.493,-4.018 13.08,-4.836 15.541,-4.794c2.693,0.042 3.449,0.362 3.49,0.553c0.047,0.195 -0.083,0.344 -0.083,0.344c-0.436,0.502 -1.034,0.822 -1.678,1.24c-2.466,1.603 -5.149,2.783 -5.149,2.783c-0.584,0.543 0.556,0.678 0.556,0.678c1.566,-0.051 3.068,-0.427 4.482,-0.971c2.915,-1.12 3.624,-2.132 3.708,-2.732c0,0 0.074,-1.561 -0.394,-2.476c-0.468,-0.915 -1.252,-1.84 -2.892,-2.23c-1.646,-0.39 -2.73,-0.376 -2.73,-0.376l-0.01,-0.005Z" style="fill:#fff;fill-rule:nonzero;"/></g></svg>